<svg xmlns="http://www.w3.org/2000/svg" viewBox="0 0 64 64" role="img" aria-labelledby="title desc">
  <title id="title">Gank route icon</title>
  <desc id="desc">A jungle-themed ambush marker with crossing path arrows and claw shapes.</desc>
  <defs>
    <radialGradient id="core" cx="35%" cy="28%" r="78%">
      <stop offset="0" stop-color="#3b2414"/>
      <stop offset=".5" stop-color="#151f2d"/>
      <stop offset="1" stop-color="#050914"/>
    </radialGradient>
    <linearGradient id="gold" x1="12" y1="8" x2="54" y2="56" gradientUnits="userSpaceOnUse">
      <stop offset="0" stop-color="#fde68a"/>
      <stop offset=".44" stop-color="#f59e0b"/>
      <stop offset="1" stop-color="#b45309"/>
    </linearGradient>
    <linearGradient id="redglow" x1="16" y1="51" x2="52" y2="17" gradientUnits="userSpaceOnUse">
      <stop offset="0" stop-color="#ef4444"/>
      <stop offset="1" stop-color="#f97316"/>
    </linearGradient>
    <filter id="shadow" x="-20%" y="-20%" width="140%" height="140%">
      <feDropShadow dx="0" dy="3" stdDeviation="2" flood-color="#000" flood-opacity=".55"/>
    </filter>
  </defs>
  <path d="M32 4 56 18v28L32 60 8 46V18Z" fill="url(#core)" stroke="#f6d37a" stroke-opacity=".72" stroke-width="2.2" filter="url(#shadow)"/>
  <path d="M32 8 51 19.2v25.6L32 56 13 44.8V19.2Z" fill="none" stroke="#78350f" stroke-width="1.5" opacity=".85"/>
  <path d="M16 45C24 35 34 29 47 24" fill="none" stroke="url(#redglow)" stroke-width="5.2" stroke-linecap="round" opacity=".9"/>
  <path d="m47 24-8.5-2.6 3.4 8.2Z" fill="#f97316"/>
  <path d="M18 19c7 2.6 12.1 7.2 15.4 13.7" fill="none" stroke="url(#gold)" stroke-width="5.6" stroke-linecap="round"/>
  <path d="m33.4 32.7.9-8.8 6.8 5.8Z" fill="#fbbf24"/>
  <path d="M25.5 12.8c1.1 7.6 5 12.4 11.2 15.7" fill="none" stroke="#fee8a3" stroke-width="2.2" stroke-linecap="round" opacity=".95"/>
  <path d="M14.2 31.2c5.8-2.2 9.7-6.1 12.4-11.7" fill="none" stroke="#f59e0b" stroke-width="3" stroke-linecap="round" opacity=".78"/>
  <path d="M46.8 48.7c-2.2-6.8-6.6-10.8-12.6-13.8" fill="none" stroke="#fbbf24" stroke-width="3.2" stroke-linecap="round" opacity=".86"/>
  <circle cx="32" cy="32" r="7.6" fill="#0b1220" stroke="#fde68a" stroke-width="2"/>
  <path d="m28.7 32.1 2.4 2.7 4.9-6.1" fill="none" stroke="#fef3c7" stroke-width="2.4" stroke-linecap="round" stroke-linejoin="round"/>
</svg>
